<mxfile host="Electron" modified="2021-04-02T13:27:46.241Z" agent="5.0 (Windows NT 10.0; WOW64) AppleWebKit/537.36 (KHTML, like Gecko) draw.io/14.4.2 Chrome/87.0.4280.141 Electron/11.3.0 Safari/537.36" etag="WyVj5FhW-IgVLROXXRb1" compressed="false" version="14.4.2" type="device">
  <diagram id="oZUeDzg7E2ForXSFUJRa" name="Seite-1">
    <mxGraphModel dx="782" dy="497" grid="1" gridSize="10" guides="1" tooltips="1" connect="1" arrows="1" fold="1" page="1" pageScale="1" pageWidth="827" pageHeight="1169" background="#000000" math="0" shadow="0">
      <root>
        <mxCell id="0" />
        <mxCell id="1" parent="0" />
        <mxCell id="TF2K_tHubGNt_VeuLou8-7" value="" style="ellipse;whiteSpace=wrap;html=1;fillColor=#dae8fc;strokeColor=#6c8ebf;strokeWidth=1;" parent="1" vertex="1">
          <mxGeometry x="160" y="190" width="220" height="240" as="geometry" />
        </mxCell>
        <mxCell id="TF2K_tHubGNt_VeuLou8-16" value="" style="shape=or;whiteSpace=wrap;html=1;rotation=90;fillColor=#ffe6cc;strokeColor=#d79b00;" parent="1" vertex="1">
          <mxGeometry x="211.25" y="348.25" width="117.5" height="140" as="geometry" />
        </mxCell>
        <mxCell id="TF2K_tHubGNt_VeuLou8-15" value="" style="shape=or;whiteSpace=wrap;html=1;rotation=-90;fillColor=#e1d5e7;strokeColor=#9673a6;strokeWidth=1;" parent="1" vertex="1">
          <mxGeometry x="212.5" y="232.5" width="115" height="140" as="geometry" />
        </mxCell>
        <mxCell id="TF2K_tHubGNt_VeuLou8-8" value="Mensch" style="text;html=1;strokeColor=none;fillColor=none;align=center;verticalAlign=middle;whiteSpace=wrap;rounded=0;" parent="1" vertex="1">
          <mxGeometry x="245" y="207.5" width="50" height="25" as="geometry" />
        </mxCell>
        <mxCell id="TF2K_tHubGNt_VeuLou8-9" value="Anwendungs-software" style="text;html=1;strokeColor=none;fillColor=none;align=center;verticalAlign=middle;whiteSpace=wrap;rounded=0;" parent="1" vertex="1">
          <mxGeometry x="230" y="260" width="80" height="30" as="geometry" />
        </mxCell>
        <mxCell id="TF2K_tHubGNt_VeuLou8-10" value="sonst. techn. Einrichtungen" style="text;html=1;strokeColor=none;fillColor=none;align=center;verticalAlign=middle;whiteSpace=wrap;rounded=0;" parent="1" vertex="1">
          <mxGeometry x="230" y="430" width="80" height="30" as="geometry" />
        </mxCell>
        <mxCell id="TF2K_tHubGNt_VeuLou8-11" value="" style="shape=curlyBracket;whiteSpace=wrap;html=1;rounded=1;rotation=0;fillColor=#e1d5e7;strokeColor=#9673a6;strokeWidth=2;" parent="1" vertex="1">
          <mxGeometry x="130" y="240" width="30" height="120" as="geometry" />
        </mxCell>
        <mxCell id="TF2K_tHubGNt_VeuLou8-12" value="" style="shape=curlyBracket;whiteSpace=wrap;html=1;rounded=1;rotation=0;size=0.5;fillColor=#ffe6cc;strokeColor=#d79b00;strokeWidth=2;" parent="1" vertex="1">
          <mxGeometry x="130" y="360" width="30" height="120" as="geometry" />
        </mxCell>
        <mxCell id="TF2K_tHubGNt_VeuLou8-13" value="" style="shape=or;whiteSpace=wrap;html=1;rotation=-90;fillColor=#e1d5e7;strokeColor=#9673a6;strokeWidth=1;" parent="1" vertex="1">
          <mxGeometry x="240" y="270" width="60" height="120" as="geometry" />
        </mxCell>
        <mxCell id="TF2K_tHubGNt_VeuLou8-14" value="" style="shape=or;whiteSpace=wrap;html=1;rotation=90;fillColor=#ffe6cc;strokeColor=#d79b00;" parent="1" vertex="1">
          <mxGeometry x="240" y="330" width="60" height="120" as="geometry" />
        </mxCell>
        <mxCell id="TF2K_tHubGNt_VeuLou8-3" value="Basissoftware/&lt;br&gt;Betriebssystem" style="text;html=1;strokeColor=none;fillColor=none;align=center;verticalAlign=middle;whiteSpace=wrap;rounded=0;" parent="1" vertex="1">
          <mxGeometry x="225" y="318.25" width="90" height="30" as="geometry" />
        </mxCell>
        <mxCell id="TF2K_tHubGNt_VeuLou8-4" value="Rechner" style="text;html=1;strokeColor=none;fillColor=none;align=center;verticalAlign=middle;whiteSpace=wrap;rounded=0;" parent="1" vertex="1">
          <mxGeometry x="245" y="372.5" width="50" height="20" as="geometry" />
        </mxCell>
        <mxCell id="TF2K_tHubGNt_VeuLou8-18" value="Software-&lt;br&gt;system" style="text;html=1;strokeColor=none;fillColor=none;align=center;verticalAlign=middle;whiteSpace=wrap;rounded=0;fontColor=#FFFFFF;" parent="1" vertex="1">
          <mxGeometry x="70" y="285" width="60" height="30" as="geometry" />
        </mxCell>
        <mxCell id="TF2K_tHubGNt_VeuLou8-19" value="Hardware-&lt;br&gt;system" style="text;html=1;strokeColor=none;fillColor=none;align=center;verticalAlign=middle;whiteSpace=wrap;rounded=0;fontColor=#FFFFFF;" parent="1" vertex="1">
          <mxGeometry x="70" y="402.25" width="60" height="32" as="geometry" />
        </mxCell>
        <mxCell id="TF2K_tHubGNt_VeuLou8-20" value="" style="shape=curlyBracket;whiteSpace=wrap;html=1;rounded=1;rotation=-180;strokeWidth=2;fillColor=#f5f5f5;strokeColor=#666666;fontColor=#333333;" parent="1" vertex="1">
          <mxGeometry x="380" y="239" width="20" height="240" as="geometry" />
        </mxCell>
        <mxCell id="TF2K_tHubGNt_VeuLou8-22" value="Anwendungs-&lt;br&gt;system" style="text;html=1;strokeColor=none;fillColor=none;align=center;verticalAlign=middle;whiteSpace=wrap;rounded=0;fontColor=#FFFFFF;" parent="1" vertex="1">
          <mxGeometry x="400" y="345.5" width="80" height="27" as="geometry" />
        </mxCell>
        <mxCell id="TF2K_tHubGNt_VeuLou8-23" value="" style="shape=curlyBracket;whiteSpace=wrap;html=1;rounded=1;strokeWidth=2;rotation=-180;fillColor=#dae8fc;strokeColor=#6c8ebf;" parent="1" vertex="1">
          <mxGeometry x="490" y="190" width="20" height="290" as="geometry" />
        </mxCell>
        <mxCell id="TF2K_tHubGNt_VeuLou8-24" value="Informations-&lt;br&gt;system" style="text;html=1;strokeColor=none;fillColor=none;align=center;verticalAlign=middle;whiteSpace=wrap;rounded=0;fontColor=#FFFFFF;" parent="1" vertex="1">
          <mxGeometry x="510" y="319" width="80" height="32" as="geometry" />
        </mxCell>
      </root>
    </mxGraphModel>
  </diagram>
</mxfile>
